<svg width="502" height="370" viewBox="0 0 502 370" fill="none" xmlns="http://www.w3.org/2000/svg">
<path d="M298.386 369.564C339.304 369.564 373.176 336.941 365.604 297.725C360.856 273.138 353.671 249.034 344.122 225.78C325.403 180.196 297.968 138.775 263.38 103.886C228.792 68.9972 187.73 41.3215 142.54 22.4396C120.23 13.1177 97.1282 6.02924 73.569 1.24104C33.5112 -6.9003 0 26.1889 0 66.094V297.309C0 337.214 33.1709 369.564 74.0893 369.564H298.386Z" fill="#5D87FF"/>
<g style="mix-blend-mode:multiply">
<path d="M203.143 369.564C162.225 369.564 128.352 336.941 135.925 297.725C140.673 273.138 147.858 249.034 157.406 225.78C176.126 180.196 203.561 138.775 238.149 103.886C272.736 68.9972 313.798 41.3215 358.988 22.4396C381.299 13.1177 404.4 6.02924 427.959 1.24104C468.018 -6.9003 501.529 26.1889 501.529 66.094V297.309C501.529 337.214 468.357 369.564 427.439 369.564H203.143Z" fill="#3DD9EB"/>
</g>
</svg>
